#N canvas 240 189 920 426 10;
#X obj 395 36 metronome 120;
#X obj 395 15 loadbang;
#X obj 30 16 umixer~;
#X obj 140 38 usend~ Master;
#N canvas 335 598 317 136 MusicFX 0;
#X obj 30 100 usend~ Master;
#X obj 30 19 inlet~;
#X obj 105 19 inlet~;
#X obj 136 60 reverb~ 0.4 0.7;
#X obj 61 39 reverb~ 0.5 0.5;
#X obj 105 80 blend~ -0.8;
#X obj 30 80 blend~ -0.9;
#X connect 1 0 4 0;
#X connect 1 0 6 0;
#X connect 2 0 3 0;
#X connect 2 0 5 0;
#X connect 3 0 5 1;
#X connect 4 0 6 1;
#X connect 5 0 0 1;
#X connect 6 0 0 0;
#X restore 30 38 pd MusicFX;
#X obj 470 15 r Tempo;
#X obj 395 59 s play_music_1;
#N canvas 650 245 450 300 music_1 0;
#N canvas 841 538 450 246 chord_progression 0;
#X obj 20 88 sequencer;
#X obj 70 48 t b b;
#X msg 71 68 0 1 2 3;
#X obj 20 108 sel 0 1 2 3;
#X msg 20 129 0 5 7 8 10 15;
#X msg 110 129 0 5 7 9 11 16;
#X msg 200 129 -2 3 5 6 8 13;
#X msg 290 129 -3 2 4 6 8 13;
#X obj 70 28 r play_music_1;
#X obj 20 151 s music_1_chord;
#X obj 20 -14 r 1/2_beat;
#X obj 20 6 random 100;
#X obj 20 46 sel 0;
#X obj 20 26 >= 25;
#X obj 20 67 t b;
#X connect 0 0 3 0;
#X connect 1 1 2 0;
#X connect 2 0 0 1;
#X connect 3 0 4 0;
#X connect 3 1 5 0;
#X connect 3 2 6 0;
#X connect 3 3 7 0;
#X connect 4 0 9 0;
#X connect 5 0 9 0;
#X connect 6 0 9 0;
#X connect 7 0 9 0;
#X connect 8 0 1 0;
#X connect 10 0 11 0;
#X connect 11 0 13 0;
#X connect 12 1 14 0;
#X connect 13 0 12 0;
#X connect 14 0 0 0;
#X restore 25 18 pd chord_progression;
#N canvas 348 270 367 216 instruments 0;
#N canvas 754 539 396 415 arpeggio 0;
#X obj 92 -45 r 1/8_beat;
#X obj 150 58 sequencer;
#X obj 92 35 t b b;
#X obj 150 98 mtof;
#X obj 23 115 square~;
#X obj 23 217 lop~;
#X obj 70 200 lfo 0.2 1000 1100;
#X obj 23 157 ADSR~ 10 100;
#X obj 31 178 echo~ 98 0.6;
#X obj 150 78 + 60;
#X obj 23 237 *~ 0.025;
#X obj 23 258 outlet~;
#X obj 201 39 r music_1_chord;
#X obj 92 -25 random 100;
#X obj 92 15 sel 0;
#X obj 161 -22 r density;
#X obj 92 -5 >= 100;
#X connect 0 0 13 0;
#X connect 1 0 9 0;
#X connect 2 0 7 1;
#X connect 2 1 1 0;
#X connect 3 0 4 0;
#X connect 4 0 7 0;
#X connect 5 0 10 0;
#X connect 6 0 5 1;
#X connect 7 0 8 0;
#X connect 7 0 5 0;
#X connect 8 0 5 0;
#X connect 9 0 3 0;
#X connect 10 0 11 0;
#X connect 12 0 1 1;
#X connect 13 0 16 0;
#X connect 14 1 2 0;
#X connect 15 0 16 1;
#X connect 16 0 14 0;
#X restore 20 -6 pd arpeggio;
#N canvas 283 197 661 415 punch_chords 0;
#X obj 92 98 sequencer;
#X obj 23 247 ADSR~ 10 100;
#X obj 92 -25 r 1/16_beat;
#X msg 163 78 10 0 5 10 0 5 20 0 0 0 0 0 0 0 0 0;
#X obj 136 58 t b b;
#X obj 403 210 mtof;
#X msg 119 177 10 \$1;
#X obj 119 157 * 5;
#X obj 437 210 mtof;
#X obj 472 210 mtof;
#X obj 92 117 sel 0;
#X obj 92 137 t b f;
#X obj 403 190 + 60;
#X obj 437 190 + 60;
#X obj 472 190 + 60;
#X obj 403 169 unpack f f f f f f;
#X obj 503 210 mtof;
#X obj 537 210 mtof;
#X obj 572 210 mtof;
#X obj 503 190 + 60;
#X obj 537 190 + 60;
#X obj 572 190 + 60;
#X obj 23 227 square~;
#X obj 75 227 square~;
#X obj 127 227 square~;
#X obj 178 227 square~;
#X obj 230 227 square~;
#X obj 282 227 square~;
#X obj 136 18 r play_music_1;
#X obj 403 148 r music_1_chord;
#X obj 23 287 outlet~;
#X obj 92 -5 random 100;
#X obj 92 35 sel 0;
#X obj 92 55 t b;
#X obj 136 38 delay 40000;
#X obj 159 -2 r density;
#X obj 92 15 >= 100;
#X obj 23 267 *~ 0.015;
#X connect 0 0 10 0;
#X connect 1 0 37 0;
#X connect 2 0 31 0;
#X connect 3 0 0 1;
#X connect 4 0 0 0;
#X connect 4 1 3 0;
#X connect 5 0 22 0;
#X connect 6 0 1 1;
#X connect 7 0 6 0;
#X connect 8 0 23 0;
#X connect 9 0 24 0;
#X connect 10 1 11 0;
#X connect 11 0 1 1;
#X connect 11 1 7 0;
#X connect 12 0 5 0;
#X connect 13 0 8 0;
#X connect 14 0 9 0;
#X connect 15 0 12 0;
#X connect 15 1 13 0;
#X connect 15 2 14 0;
#X connect 15 3 19 0;
#X connect 15 4 20 0;
#X connect 15 5 21 0;
#X connect 16 0 25 0;
#X connect 17 0 26 0;
#X connect 18 0 27 0;
#X connect 19 0 16 0;
#X connect 20 0 17 0;
#X connect 21 0 18 0;
#X connect 22 0 1 0;
#X connect 23 0 1 0;
#X connect 24 0 1 0;
#X connect 25 0 1 0;
#X connect 26 0 1 0;
#X connect 27 0 1 0;
#X connect 28 0 34 0;
#X connect 29 0 15 0;
#X connect 31 0 36 0;
#X connect 32 1 33 0;
#X connect 33 0 0 0;
#X connect 34 0 4 0;
#X connect 35 0 36 1;
#X connect 36 0 32 0;
#X connect 37 0 30 0;
#X restore 20 14 pd punch_chords;
#N canvas 701 475 514 349 bass 0;
#X obj 102 108 sequencer;
#X obj 33 257 ADSR~ 10 100;
#X obj 193 179 unpack f f f;
#X obj 102 5 r 1/16_beat;
#X obj 236 68 t b b;
#X obj 193 220 mtof;
#X msg 129 187 10 \$1;
#X obj 102 127 sel 0;
#X obj 102 147 t b f;
#X msg 263 88 10 0 0 10 0 0 10 0 0 0 0 0 10 0 0 0;
#X obj 129 167 * 10;
#X obj 193 200 + 36;
#X obj 273 220 mtof;
#X obj 273 200 + 24;
#X obj 236 27 r play_music_1;
#X obj 33 297 outlet~;
#X obj 193 158 r music_1_chord;
#X obj 102 25 random 100;
#X obj 102 65 sel 0;
#X obj 102 85 t b;
#X obj 33 237 triangle~;
#X obj 103 237 sawtooth~;
#X obj 236 48 delay 10000;
#X obj 170 28 r density;
#X obj 102 45 >= 100;
#X obj 33 277 *~ 0.4;
#X connect 0 0 7 0;
#X connect 1 0 25 0;
#X connect 2 0 11 0;
#X connect 2 0 13 0;
#X connect 3 0 17 0;
#X connect 4 0 0 0;
#X connect 4 1 9 0;
#X connect 5 0 20 0;
#X connect 6 0 1 1;
#X connect 7 1 8 0;
#X connect 8 0 1 1;
#X connect 8 1 10 0;
#X connect 9 0 0 1;
#X connect 10 0 6 0;
#X connect 11 0 5 0;
#X connect 12 0 21 0;
#X connect 13 0 12 0;
#X connect 14 0 22 0;
#X connect 16 0 2 0;
#X connect 17 0 24 0;
#X connect 18 1 19 0;
#X connect 19 0 0 0;
#X connect 20 0 1 0;
#X connect 22 0 4 0;
#X connect 23 0 24 1;
#X connect 24 0 18 0;
#X connect 25 0 15 0;
#X restore 20 34 pd bass;
#N canvas 567 548 310 175 drum 0;
#N canvas 887 517 544 300 hi-hat 0;
#X obj 35 131 noise~;
#X obj 35 152 ADSR~ 10 50;
#X obj 134 75 sequencer;
#X obj 288 35 t b b;
#X obj 134 -28 r 1/16_beat;
#X msg 315 55 10 0 5 10 0 5 20 0 0 10 0 0 0 10 0 0;
#X obj 134 95 sel 0;
#X obj 134 115 t b f;
#X msg 161 135 \$1 \$1;
#X obj 35 173 *~ 0.025;
#X obj 288 -5 r play_music_1;
#X obj 35 194 outlet~;
#X obj 134 -7 random 100;
#X obj 134 33 sel 0;
#X obj 134 54 t b;
#X obj 288 15 delay 30000;
#X obj 202 -4 r density;
#X obj 134 13 >= 100;
#X connect 0 0 1 0;
#X connect 1 0 9 0;
#X connect 2 0 6 0;
#X connect 3 0 2 0;
#X connect 3 1 5 0;
#X connect 4 0 12 0;
#X connect 5 0 2 1;
#X connect 6 1 7 0;
#X connect 7 0 1 1;
#X connect 7 1 8 0;
#X connect 8 0 1 1;
#X connect 9 0 11 0;
#X connect 10 0 15 0;
#X connect 12 0 17 0;
#X connect 13 1 14 0;
#X connect 14 0 2 0;
#X connect 15 0 3 0;
#X connect 16 0 17 1;
#X connect 17 0 13 0;
#X restore 10 13 pd hi-hat;
#N canvas 608 443 450 413 kick 0;
#X obj 25 252 ADSR~ 10 50;
#X obj 124 95 sequencer;
#X obj 168 55 t b b;
#X obj 124 -7 r 1/16_beat;
#X obj 124 115 sel 0;
#X obj 124 135 t b f;
#X msg 151 235 10 \$1;
#X obj 151 215 * 10;
#X obj 25 212 vline~;
#X obj 25 232 triangle~;
#X msg 25 192 500 0 \, 60 20;
#X obj 25 172 vline~;
#X obj 85 232 triangle~;
#X msg 25 153 2000 0 \, 80 5;
#X obj 25 273 *~ 0.1;
#X msg 195 75 10 0 10 10 10 0 10 0 0 10 0 10 10 10 0 10;
#X obj 168 35 r play_music_1;
#X obj 25 294 outlet~;
#X obj 124 13 random 100;
#X obj 124 53 sel 0;
#X obj 124 74 t b;
#X obj 192 16 r density;
#X obj 124 33 >= 100;
#X connect 0 0 14 0;
#X connect 1 0 4 0;
#X connect 2 0 1 0;
#X connect 2 1 15 0;
#X connect 3 0 18 0;
#X connect 4 1 5 0;
#X connect 5 0 0 1;
#X connect 5 0 10 0;
#X connect 5 0 13 0;
#X connect 5 1 7 0;
#X connect 6 0 0 1;
#X connect 7 0 6 0;
#X connect 8 0 9 0;
#X connect 9 0 0 0;
#X connect 10 0 8 0;
#X connect 11 0 12 0;
#X connect 12 0 0 0;
#X connect 13 0 11 0;
#X connect 14 0 17 0;
#X connect 15 0 1 1;
#X connect 16 0 2 0;
#X connect 18 0 22 0;
#X connect 19 1 20 0;
#X connect 20 0 1 0;
#X connect 21 0 22 1;
#X connect 22 0 19 0;
#X restore 10 53 pd kick;
#X obj 10 74 outlet~;
#X obj 60 74 outlet~;
#N canvas 958 490 450 413 snare 0;
#X obj 160 95 sequencer;
#X obj 244 55 t b b;
#X obj 160 115 sel 0;
#X obj 244 15 r play_music_1;
#X obj 25 344 outlet~;
#X obj 25 212 noise~;
#X obj 25 303 blend~ -0.5;
#X obj 176 212 noise~;
#X obj 160 135 t b;
#X obj 25 252 ADSR~ 10 50 0.3 100 100;
#X obj 160 -8 r 1/4_beat;
#X obj 56 283 reverb~ 0.65 0.1;
#X obj 25 232 bp~ 200 0.1;
#X obj 175 232 bp~ 2500 0.5;
#X obj 175 252 ADSR~ 10 50;
#X msg 271 75 0 0 0 1 0 0 0 0 0 0 0 0 0 0 0 0;
#X obj 160 13 random 100;
#X obj 160 53 sel 0;
#X obj 160 74 t b;
#X obj 160 33 >= 50;
#X obj 244 35 delay 55000;
#X obj 25 323 *~ 0.075;
#X connect 0 0 2 0;
#X connect 1 0 0 0;
#X connect 1 1 15 0;
#X connect 2 1 8 0;
#X connect 3 0 20 0;
#X connect 5 0 12 0;
#X connect 6 0 21 0;
#X connect 7 0 13 0;
#X connect 8 0 9 1;
#X connect 8 0 14 1;
#X connect 9 0 11 0;
#X connect 9 0 6 0;
#X connect 10 0 16 0;
#X connect 11 0 6 1;
#X connect 12 0 9 0;
#X connect 13 0 14 0;
#X connect 14 0 11 0;
#X connect 14 0 6 0;
#X connect 15 0 0 1;
#X connect 16 0 19 0;
#X connect 17 1 18 0;
#X connect 18 0 0 0;
#X connect 19 0 17 0;
#X connect 20 0 1 0;
#X connect 21 0 4 0;
#X restore 10 33 pd snare;
#X connect 0 0 2 0;
#X connect 0 0 3 0;
#X connect 1 0 2 0;
#X connect 1 0 3 0;
#X connect 4 0 2 0;
#X connect 4 0 3 0;
#X restore 20 54 pd drum;
#X obj 20 79 outlet~;
#X obj 70 79 outlet~;
#N canvas 667 417 396 415 lead 0;
#X obj 110 -23 sequencer;
#X obj 110 17 t b b;
#X obj 23 254 outlet~;
#X obj 23 152 sawtooth~;
#X obj 110 -3 sel 0;
#X obj 23 132 vline~;
#X obj 23 73 mtof;
#X obj 63 73 mtof;
#X msg 23 54 60;
#X obj 23 34 t b b;
#X obj 23 93 pack f f;
#X msg 63 54 36;
#X obj 83 152 sawtooth~;
#X obj 83 133 +~ 2;
#X msg 23 112 \$1 0 \, \$2 2000;
#X obj 143 152 sawtooth~;
#X obj 143 133 +~ 3;
#X obj 30 212 reverb~ 0.1 0.3;
#X obj 23 172 ADSR~ 2000 2000;
#X obj 110 -104 random 100;
#X obj 110 -64 sel 0;
#X obj 110 -43 t b;
#X obj 110 -125 r 1/2_beat;
#X obj 217 244 dac~;
#X obj 189 -60 r play_music_1;
#X obj 179 -101 r density;
#X obj 110 -84 >= 100;
#X msg 189 -40 0 0 0 0 0 0 0 0 0 0 0 0 0 0 0 1;
#X obj 23 232 *~ 0.01;
#X obj 23 192 flanger~ 1 3;
#X connect 0 0 4 0;
#X connect 1 0 18 1;
#X connect 1 1 9 0;
#X connect 3 0 18 0;
#X connect 4 1 1 0;
#X connect 5 0 3 0;
#X connect 5 0 13 0;
#X connect 5 0 16 0;
#X connect 6 0 10 0;
#X connect 7 0 10 1;
#X connect 8 0 6 0;
#X connect 9 0 8 0;
#X connect 9 1 11 0;
#X connect 10 0 14 0;
#X connect 11 0 7 0;
#X connect 12 0 18 0;
#X connect 13 0 12 0;
#X connect 14 0 5 0;
#X connect 15 0 18 0;
#X connect 16 0 15 0;
#X connect 17 0 28 0;
#X connect 18 0 29 0;
#X connect 19 0 26 0;
#X connect 20 1 21 0;
#X connect 21 0 0 0;
#X connect 22 0 19 0;
#X connect 24 0 27 0;
#X connect 25 0 26 1;
#X connect 26 0 20 0;
#X connect 27 0 0 1;
#X connect 28 0 2 0;
#X connect 28 0 23 1;
#X connect 28 0 23 0;
#X connect 29 0 17 0;
#X connect 29 0 28 0;
#X restore 20 -46 pd lead;
#N canvas 547 97 457 429 arpeggio_crazy 0;
#X obj 33 252 *~ 0.025;
#X obj 33 294 outlet~;
#X obj 120 293 outlet~;
#X obj 40 232 echo~ 89 0.4;
#X obj 120 155 sel 0;
#X msg 211 -20 0;
#X msg 224 -1 5;
#X msg 238 19 7;
#X msg 252 39 -2;
#X msg 265 59 -5;
#X msg 279 79 -7;
#X msg 293 99 2;
#X msg 306 119 10;
#X msg 320 139 -10;
#X obj 211 -59 random 9;
#X obj 211 -40 sel 0 1 2 3 4 5 6 7 8;
#X obj 211 -78 r 1/32_beat;
#X obj 120 95 r 1/4_beat;
#X obj 120 175 t b;
#X obj 211 156 + 72;
#X obj 211 175 mtof;
#X obj 33 192 osc~;
#X obj 33 272 autopan~ 0.25 1;
#X obj 120 115 random 100;
#X obj 120 135 >= 98;
#X obj 33 212 ADSR~ 3000 3000;
#X connect 0 0 22 0;
#X connect 3 0 0 0;
#X connect 4 1 18 0;
#X connect 5 0 19 0;
#X connect 6 0 19 0;
#X connect 7 0 19 0;
#X connect 8 0 19 0;
#X connect 9 0 19 0;
#X connect 10 0 19 0;
#X connect 11 0 19 0;
#X connect 12 0 19 0;
#X connect 13 0 19 0;
#X connect 14 0 15 0;
#X connect 15 0 5 0;
#X connect 15 1 6 0;
#X connect 15 2 7 0;
#X connect 15 3 8 0;
#X connect 15 4 9 0;
#X connect 15 5 10 0;
#X connect 15 6 11 0;
#X connect 15 7 12 0;
#X connect 15 8 13 0;
#X connect 16 0 14 0;
#X connect 17 0 23 0;
#X connect 18 0 25 1;
#X connect 19 0 20 0;
#X connect 20 0 21 0;
#X connect 21 0 25 0;
#X connect 22 0 1 0;
#X connect 22 1 2 0;
#X connect 23 0 24 0;
#X connect 24 0 4 0;
#X connect 25 0 3 0;
#X connect 25 0 0 0;
#X restore 20 -26 pd arpeggio_crazy;
#X obj 224 -35 r 1/1_beat;
#X obj 224 46 s density;
#X obj 224 5 - 1;
#X obj 224 -15 f 80;
#X obj 224 27 clip 0 100;
#X connect 0 0 4 0;
#X connect 0 0 5 0;
#X connect 1 0 4 0;
#X connect 1 0 5 0;
#X connect 2 0 4 0;
#X connect 2 0 5 0;
#X connect 3 0 4 0;
#X connect 3 1 5 0;
#X connect 6 0 4 0;
#X connect 6 0 5 0;
#X connect 7 0 4 0;
#X connect 7 1 5 0;
#X connect 8 0 11 0;
#X connect 10 0 11 1;
#X connect 10 0 12 0;
#X connect 11 0 10 0;
#X connect 12 0 9 0;
#X restore 25 38 pd instruments;
#X obj 25 61 usend~ Music;
#X connect 1 0 2 0;
#X connect 1 1 2 1;
#X restore 544 16 pd music_1;
#N canvas 319 576 345 140 sfx 0;
#X obj 17 26 usend~ SFX;
#N canvas 818 546 480 353 jump 0;
#X msg 204 53 0;
#X msg 217 72 5;
#X msg 231 92 7;
#X msg 245 112 -2;
#X msg 258 132 -5;
#X msg 272 152 -7;
#X msg 286 172 2;
#X msg 299 192 10;
#X msg 313 212 -10;
#X obj 204 14 random 9;
#X obj 204 33 sel 0 1 2 3 4 5 6 7 8;
#X obj 204 248 mtof;
#X obj 204 -6 r 1/32_beat;
#X obj 55 98 *~;
#X obj 55 242 outlet~;
#X obj 55 1 r Jump;
#X obj 55 78 vline~;
#X obj 204 229 + 48;
#X obj 55 161 square~;
#X obj 55 222 *~ 0.05;
#X obj 55 182 ADSR~ 10 70;
#X msg 55 57 3 0 \, 1 20 0 \, 3 50 20;
#X obj 55 202 lop~ 4000;
#X connect 0 0 17 0;
#X connect 1 0 17 0;
#X connect 2 0 17 0;
#X connect 3 0 17 0;
#X connect 4 0 17 0;
#X connect 5 0 17 0;
#X connect 6 0 17 0;
#X connect 7 0 17 0;
#X connect 8 0 17 0;
#X connect 9 0 10 0;
#X connect 10 0 0 0;
#X connect 10 1 1 0;
#X connect 10 2 2 0;
#X connect 10 3 3 0;
#X connect 10 4 4 0;
#X connect 10 5 5 0;
#X connect 10 6 6 0;
#X connect 10 7 7 0;
#X connect 10 8 8 0;
#X connect 11 0 13 1;
#X connect 12 0 9 0;
#X connect 13 0 18 0;
#X connect 15 0 21 0;
#X connect 15 0 20 1;
#X connect 16 0 13 0;
#X connect 17 0 11 0;
#X connect 18 0 20 0;
#X connect 19 0 14 0;
#X connect 20 0 22 0;
#X connect 21 0 16 0;
#X connect 22 0 19 0;
#X restore 17 -44 pd jump;
#N canvas 818 546 604 353 rotate 0;
#X obj 55 98 *~;
#X obj 55 282 outlet~;
#X obj 55 78 vline~;
#X obj 55 31 r Rotate;
#X obj 80 182 fm~;
#X obj 55 181 fm~;
#X obj 105 182 fm~;
#X obj 55 221 flanger~ 0.5 3;
#X obj 148 282 outlet~;
#X obj 136 140 *~ 5.243;
#X obj 55 118 +~;
#X obj 55 262 autopan~ 0.5 0.5;
#X obj 55 202 ADSR~ 10 500;
#X msg 55 57 1 0 \, 3 100;
#X obj 105 82 lfo~ 10 100;
#X obj 80 160 *~ 7.128;
#X obj 134 160 *~ 9.6234;
#X obj 80 140 *~ 6.275;
#X obj 105 101 random 200;
#X obj 55 242 *~ 0.02;
#X connect 0 0 10 0;
#X connect 2 0 0 0;
#X connect 3 0 13 0;
#X connect 3 0 12 1;
#X connect 3 0 18 0;
#X connect 4 0 12 0;
#X connect 5 0 12 0;
#X connect 6 0 12 0;
#X connect 7 0 19 0;
#X connect 9 0 6 0;
#X connect 10 0 5 0;
#X connect 10 0 9 0;
#X connect 10 0 15 0;
#X connect 10 0 16 0;
#X connect 10 0 17 0;
#X connect 11 0 1 0;
#X connect 11 1 8 0;
#X connect 12 0 7 0;
#X connect 13 0 2 0;
#X connect 14 0 0 1;
#X connect 15 0 5 1;
#X connect 15 0 4 1;
#X connect 15 0 6 1;
#X connect 16 0 5 2;
#X connect 16 0 4 2;
#X connect 16 0 6 2;
#X connect 17 0 4 0;
#X connect 18 0 10 1;
#X connect 19 0 11 0;
#X restore 17 -24 pd rotate;
#N canvas 818 546 439 235 destroy 0;
#X obj 13 -153 outlet~;
#X obj 64 -154 outlet~;
#X obj 82 -342 r Destroy;
#X obj 13 -283 noise~;
#X obj 84 -223 bp~ 1000 1;
#X obj 154 -223 bp~ 1500 1;
#X obj 14 -223 bp~ 500 1;
#X obj 13 -263 *~;
#X obj 58 -279 clip~ 0 1;
#X obj 58 -299 square~ 40;
#X obj 13 -243 ADSR~ 10 100;
#X obj 13 -173 pan~ -0.5;
#X obj 225 -284 * 2;
#X obj 250 -284 * 3;
#X obj 225 -305 randomrange 100 1000;
#X obj 13 -193 *~ 0.0075;
#X obj 82 -322 delay 10;
#X obj 118 -242 line;
#X msg 118 -262 \$1 50;
#X obj 158 -242 line;
#X msg 158 -262 \$1 50;
#X obj 198 -242 line;
#X msg 198 -262 \$1 50;
#X connect 2 0 16 0;
#X connect 3 0 7 0;
#X connect 4 0 15 0;
#X connect 5 0 15 0;
#X connect 6 0 15 0;
#X connect 7 0 10 0;
#X connect 8 0 7 1;
#X connect 9 0 8 0;
#X connect 10 0 4 0;
#X connect 10 0 6 0;
#X connect 10 0 5 0;
#X connect 11 0 0 0;
#X connect 11 1 1 0;
#X connect 12 0 20 0;
#X connect 13 0 22 0;
#X connect 14 0 12 0;
#X connect 14 0 13 0;
#X connect 14 0 18 0;
#X connect 15 0 11 0;
#X connect 16 0 14 0;
#X connect 16 0 10 1;
#X connect 17 0 6 1;
#X connect 18 0 17 0;
#X connect 19 0 4 1;
#X connect 20 0 19 0;
#X connect 21 0 5 1;
#X connect 22 0 21 0;
#X restore 17 -4 pd destroy;
#X connect 1 0 0 0;
#X connect 1 0 0 1;
#X connect 2 0 0 0;
#X connect 2 1 0 1;
#X connect 3 0 0 0;
#X connect 3 1 0 1;
#X restore 544 37 pd sfx;
#N canvas 585 167 450 300 VoiceFX 1;
#X obj 39 33 inlet~;
#X obj 146 35 inlet~;
#X obj 38 203 usend~ Master;
#X obj 38 92 bp~ 1000 1;
#X obj 111 91 bp~ 1200 1;
#X obj 182 90 bp~ 1500 1;
#X obj 257 89 bp~ 3200 1;
#X obj 38 182 *~ 0.75;
#X obj 38 162 lop~ 4000;
#X obj 182 70 pitchshifter~ 1.02;
#X connect 0 0 3 0;
#X connect 0 0 4 0;
#X connect 0 0 9 0;
#X connect 1 0 4 0;
#X connect 1 0 3 0;
#X connect 1 0 9 0;
#X connect 3 0 8 0;
#X connect 4 0 8 0;
#X connect 5 0 8 0;
#X connect 6 0 8 0;
#X connect 7 0 2 0;
#X connect 7 0 2 1;
#X connect 8 0 7 0;
#X connect 9 0 5 0;
#X connect 9 0 6 0;
#X restore 250 38 pd VoiceFX;
#X connect 1 0 0 0;
#X connect 1 0 6 0;
#X connect 2 0 4 0;
#X connect 2 1 4 1;
#X connect 2 2 3 0;
#X connect 2 3 3 1;
#X connect 2 4 9 0;
#X connect 2 5 9 1;
#X connect 5 0 0 1;
