#N canvas 192 370 1196 291 10;
#X obj 300 252 adsr~;
#X obj 461 92 am~;
#X obj 581 52 autopan~;
#X obj 300 172 blend~;
#X obj 300 72 default~;
#X obj 581 72 echo~;
#X obj 581 112 flanger~;
#X obj 20 152 floatbool;
#X obj 461 112 fm~;
#X obj 300 212 gate~;
#X obj 20 112 getvar;
#X obj 150 32 lfo;
#X obj 300 32 lfo~;
#X obj 20 212 listadd;
#X obj 20 192 listlength;
#X obj 20 232 listpop;
#X obj 150 52 oneminus;
#X obj 300 52 oneminus~;
#X obj 300 232 pan~;
#X obj 581 132 phaser~;
#X obj 300 132 phasorshot~;
#X obj 581 152 pitchshifter~;
#X obj 150 112 prepend;
#X obj 150 72 randomrange;
#X obj 581 92 reverb~;
#X obj 300 112 sampledelay~;
#X obj 461 72 sawtooth~;
#X obj 150 132 sequencer;
#X obj 20 132 setvar;
#X obj 300 192 sin~;
#X obj 150 92 spigotonce;
#X obj 461 52 square~;
#X obj 20 172 symbolbool;
#X obj 300 92 timedelay~;
#X obj 581 32 tremolo~;
#X obj 461 32 triangle~;
#X obj 700 31 umixer~;
#X obj 300 152 unsig~;
#X obj 700 53 usend~;
#X obj 700 73 uspatializer~;
#X obj 20 92 varany;
#X obj 20 32 varfloat;
#X obj 20 72 varlist;
#X obj 20 52 varsymbol;
#X text 17 16 -Object oriented-;
#X text 697 16 -Unity-;
#X text 457 16 -Audio Sources-;
#X text 577 16 -Audio Effects-;
#X text 147 16 -Various data tools-;
#X text 297 16 -Various signal tools-;
