#N canvas 105 505 307 159 10;
#X obj 20 117 outlet;
#X obj 20 77 lfo~ \$1 \$2 \$3;
#X obj 20 97 unsig~;
#X obj 20 18 inlet frequency;
#X obj 57 38 inlet amplitude;
#X obj 95 58 inlet center;
#X connect 1 0 2 0;
#X connect 2 0 0 0;
#X connect 3 0 1 0;
#X connect 4 0 1 1;
#X connect 5 0 1 2;
