#N canvas 206 509 304 155 10;
#X obj 22 60 phasor~;
#X obj 22 40 default~ \$1;
#X obj 22 20 inlet~ frequency;
#X obj 22 80 *~ 2;
#X obj 22 100 -~ 1;
#X obj 22 120 outlet~;
#X obj 126 20 inlet phase;
#X connect 0 0 3 0;
#X connect 1 0 0 0;
#X connect 2 0 1 0;
#X connect 3 0 4 0;
#X connect 4 0 5 0;
#X connect 6 0 0 1;
