#N canvas 200 300 1000 300 10;
#X obj 0 50 loadbang;
#X symbolatom 0 0 10 0 0 0 - ubus_receiveNameMusic ubus_sendNameMusic;
#X msg 0 70 symbol Music;
#X obj 0 90 s ubus_receiveNameMusic;
#X obj 0 110 Internal/ubus~ Music;
#X obj 0 130 outlet~ Music_left;
#X obj 63 130 outlet~ Music_right;
#X symbolatom 110 0 10 0 0 0 - ubus_receiveNameSFX ubus_sendNameSFX;
#X msg 110 70 symbol SFX;
#X obj 110 90 s ubus_receiveNameSFX;
#X obj 110 110 Internal/ubus~ SFX;
#X obj 110 130 outlet~ SFX_left;
#X obj 173 130 outlet~ SFX_right;
#X symbolatom 220 0 10 0 0 0 - ubus_receiveNameVoice ubus_sendNameVoice;
#X msg 220 70 symbol Voice;
#X obj 220 90 s ubus_receiveNameVoice;
#X obj 220 110 Internal/ubus~ Voice;
#X obj 220 130 outlet~ Voice_left;
#X obj 283 130 outlet~ Voice_right;
#X obj 330 130 outlet;
#X connect 0 0 2 0;
#X connect 2 0 3 0;
#X connect 4 0 5 0;
#X connect 4 1 6 0;
#X connect 0 0 8 0;
#X connect 8 0 9 0;
#X connect 10 0 11 0;
#X connect 10 1 12 0;
#X connect 0 0 14 0;
#X connect 14 0 15 0;
#X connect 16 0 17 0;
#X connect 16 1 18 0;
#X coords 0 -1 1 1 338 19 2 0 0;
